<svg height="50px" viewBox="0 -117 512.00052 512" width="50px" xmlns="http://www.w3.org/2000/svg"><path d="m471.625 88.589844 31.0625-58.585938c5.414062-10.207031-1.988281-22.503906-13.539062-22.503906h-24.175782c-9.992187 0-19.699218 3.328125-27.59375 9.457031l-87.472656 67.933594zm0 0" fill="#abebf4"/><path d="m411.570312 37-61.667968 47.890625 121.722656 3.699219 27.355469-51.589844zm0 0" fill="#8ed7e8"/><path d="m56.457031 214.15625h297.722657c30.0625 0 57.734374-16.402344 72.160156-42.78125l55.425781-101.910156h-323.179687c-54.164063 0-111.984376 30.886718-139.433594 66.648437-27.445313 35.761719-2.984375 78.042969 37.304687 78.042969zm0 0" fill="#ccf8ff"/><path d="m183.601562 169.921875s-15.308593 14.042969-26.597656 44.234375h115.847656v-44.234375zm0 0" fill="#8ed7e8"/><path d="m189.582031 189.425781c34.007813 26.40625 95.441407 62.523438 192.25 80.925781 15.566407 2.960938 25.007813-16.578124 12.953125-26.867187-25.269531-21.566406-56.4375-48.453125-77.113281-66.328125-14.554687-12.582031-33.140625-19.496094-52.378906-19.496094h-64.808594c-16.910156 0-24.257813 21.398438-10.902344 31.765625zm0 0" fill="#abebf4"/><g fill="#acabb1"><path d="m100.734375 101.660156h-43.347656c-15.46875 10.164063-28.699219 22.011719-38.25 34.453125-5.414063 7.054688-8.777344 14.359375-10.429688 21.546875h86.867188c32.894531 0 30.578125-30.578125 30.578125-30.578125.003906-14.042969-11.378906-25.421875-25.417969-25.421875zm0 0"/><path d="m184.429688 136.078125h-10.960938c-6.476562 0-11.726562-5.253906-11.726562-11.730469v-10.957031c0-6.480469 5.25-11.730469 11.726562-11.730469h10.960938c6.476562 0 11.726562 5.25 11.726562 11.730469v10.957031c0 6.476563-5.25 11.730469-11.726562 11.730469zm0 0"/><path d="m250.105469 136.078125h-10.957031c-6.476563 0-11.730469-5.253906-11.730469-11.730469v-10.957031c0-6.480469 5.253906-11.730469 11.730469-11.730469h10.957031c6.476562 0 11.730469 5.25 11.730469 11.730469v10.957031c0 6.476563-5.253907 11.730469-11.730469 11.730469zm0 0"/><path d="m315.785156 136.078125h-10.957031c-6.480469 0-11.730469-5.253906-11.730469-11.730469v-10.957031c0-6.480469 5.25-11.730469 11.730469-11.730469h10.957031c6.476563 0 11.730469 5.25 11.730469 11.730469v10.957031c0 6.476563-5.253906 11.730469-11.730469 11.730469zm0 0"/></g><path d="m173.472656 94.160156c-10.605468 0-19.230468 8.625-19.230468 19.230469v10.957031c0 10.605469 8.625 19.230469 19.230468 19.230469h10.957032c10.601562 0 19.230468-8.628906 19.230468-19.230469v-10.957031c0-10.605469-8.628906-19.230469-19.230468-19.230469zm15.183594 19.230469v10.957031c0 2.332032-1.894531 4.230469-4.226562 4.230469h-10.960938c-2.332031 0-4.226562-1.898437-4.226562-4.230469v-10.957031c0-2.332031 1.894531-4.230469 4.226562-4.230469h10.960938c2.332031 0 4.226562 1.898438 4.226562 4.230469zm0 0"/><path d="m239.148438 94.160156c-10.605469 0-19.230469 8.625-19.230469 19.230469v10.957031c0 10.605469 8.625 19.230469 19.230469 19.230469h10.957031c10.605469 0 19.230469-8.628906 19.230469-19.230469v-10.957031c0-10.605469-8.625-19.230469-19.230469-19.230469zm15.1875 19.230469v10.957031c0 2.332032-1.898438 4.230469-4.230469 4.230469h-10.957031c-2.332032 0-4.230469-1.898437-4.230469-4.230469v-10.957031c0-2.332031 1.898437-4.230469 4.230469-4.230469h10.957031c2.332031 0 4.230469 1.898438 4.230469 4.230469zm0 0"/><path d="m304.824219 94.160156c-10.601563 0-19.226563 8.625-19.226563 19.230469v10.957031c0 10.605469 8.625 19.230469 19.226563 19.230469h10.960937c10.601563 0 19.226563-8.628906 19.226563-19.230469v-10.957031c0-10.605469-8.625-19.230469-19.226563-19.230469zm15.1875 19.230469v10.957031c0 2.332032-1.894531 4.230469-4.226563 4.230469h-10.957031c-2.332031 0-4.230469-1.898437-4.230469-4.230469v-10.957031c0-2.332031 1.898438-4.230469 4.230469-4.230469h10.957031c2.332032 0 4.226563 1.898438 4.226563 4.230469zm0 0"/><path d="m508.707031 11.058594c-4.167969-6.925782-11.476562-11.058594-19.558593-11.058594h-24.175782c-11.601562 0-23.03125 3.917969-32.195312 11.035156l-65.578125 50.929688h-208.613281c-53.296876 0-114.4375 29.261718-145.382813 69.582031-14.210937 18.515625-17.144531 40.820313-7.851563 59.671875 9.257813 18.773438 28.839844 30.4375 51.105469 30.4375h167.757813c36.597656 21.269531 87.605468 43.753906 156.214844 56.066406 12.351562 2.214844 21.101562-4.472656 25.015624-12.628906 4.554688-9.492188 2.226563-20.46875-5.789062-27.3125-7.089844-6.050781-14.660156-12.535156-22.355469-19.140625 23.535157-6.238281 43.671875-21.820313 55.628907-43.679687l21.535156-39.597657c1.976562-3.640625.632812-8.191406-3.007813-10.171875-3.636719-1.980468-8.191406-.632812-10.171875 3.003906l-21.523437 39.582032c-11.71875 21.417968-32.875 35.605468-56.988281 38.378906-14.515626-12.488281-28.699219-24.734375-40.199219-34.671875-15.90625-13.753906-36.25-21.324219-57.28125-21.324219h-64.808594c-10.964844 0-20.34375 6.703125-23.898437 17.074219-3.550782 10.363281-.253907 21.402344 8.394531 28.117187 4.671875 3.628907 9.839843 7.417969 15.496093 11.304688h-144.019531c-16.511719 0-30.9375-8.457031-37.652343-22.074219-6.808594-13.8125-4.515626-29.816406 6.296874-43.902343 8.683594-11.3125 20.578126-22.101563 34.558594-31.519532h41.074219c9.882813 0 17.921875 8.039063 17.921875 17.921875 0 .1875.007812.378907.019531.566407.007813.09375.566407 9.871093-5.425781 16.335937-3.800781 4.097656-9.746094 6.175781-17.671875 6.175781h-56.234375c-4.144531 0-7.5 3.359375-7.5 7.5s3.355469 7.5 7.5 7.5h56.234375c12.269531 0 21.917969-3.691406 28.671875-10.976562 9.765625-10.535156 9.523438-24.859375 9.402344-27.320313-.117188-18.054687-14.839844-32.703125-32.917969-32.703125h-14.496094c23.820313-11.105468 49.34375-17.195312 72.347657-17.195312h310.566406l-13.8125 25.398437c-1.980469 3.636719-.632813 8.191407 3.003906 10.171875 3.636719 1.976563 8.191406.632813 10.171875-3.007812l40.796875-76.003906c3.789062-7.144532 3.558594-15.539063-.605469-22.464844zm-317.933593 161.039062c1.152343-3.355468 4.304687-6.9375 9.710937-6.9375h64.808594c17.433593 0 34.292969 6.273438 47.472656 17.667969 21.457031 18.550781 52.257813 45.117187 77.152344 66.363281 4.292969 3.664063 2.617187 8.132813 2.003906 9.417969-1.28125 2.667969-4.226563 5.222656-8.6875 4.375-67.667969-12.863281-117.738281-34.429687-153.1875-55.285156-.09375-.054688-.1875-.113281-.285156-.164063-14.125-8.328125-25.929688-16.539062-35.578125-24.03125-5.363282-4.164062-3.964844-9.785156-3.410156-11.40625zm305.289062-145.605468-18.808594 35.472656h-85.597656l50.324219-39.085938c6.542969-5.082031 14.710937-7.878906 22.992187-7.878906h24.175782c3.992187 0 6.019531 2.652344 6.703124 3.792969.6875 1.136719 2.082032 4.171875.210938 7.699219zm0 0"/></svg>