<svg height="50px" viewBox="-89 0 512 512.003" width="50px" xmlns="http://www.w3.org/2000/svg"><path d="m253.949219 450.011719c0 11.0625-8.964844 20.027343-20.027344 20.027343-11.058594 0-20.027344-8.964843-20.027344-20.027343 0-11.058594 8.96875-27.5 20.027344-27.5 11.0625 0 20.027344 16.441406 20.027344 27.5zm0 0" fill="#ffde55"/><path d="m120.296875 450.011719c0 11.0625-8.964844 20.027343-20.027344 20.027343-11.058593 0-20.027343-8.964843-20.027343-20.027343 0-11.058594 8.96875-27.5 20.027343-27.5 11.0625 0 20.027344 16.441406 20.027344 27.5zm0 0" fill="#ffde55"/><path d="m201.871094 504.5h-69.550782c-15.628906 0-28.296874-12.667969-28.296874-28.296875v-66.757813h126.144531v66.757813c0 15.628906-12.667969 28.296875-28.296875 28.296875zm0 0" fill="#dd9f80"/><path d="m104.023438 474.597656c48.035156-24.472656 103.917968-27.996094 126.144531-28.363281v-36.789063h-126.144531zm0 0" fill="#c68d6d"/><path d="m326.691406 156.007812c0 82.015626-71.453125 191.410157-159.59375 191.410157-88.144531 0-159.597656-109.394531-159.597656-191.410157 0-82.019531 71.453125-148.507812 159.597656-148.507812 88.140625 0 159.59375 66.488281 159.59375 148.507812zm0 0" fill="#ffa5b5"/><path d="m108.734375 17.746094c-10.632813 40.449218-44.792969 192.964844 6.863281 317.121094 16.15625 7.976562 33.476563 12.550781 51.5 12.550781 18.019532 0 35.339844-4.574219 51.496094-12.550781 51.660156-124.15625 17.5-276.671876 6.867188-317.121094-18.078126-6.613282-37.765626-10.246094-58.363282-10.246094-20.601562 0-40.289062 3.632812-58.363281 10.246094zm0 0" fill="#ffdaaa"/><path d="m221.535156 431.691406h-108.878906c-12.289062 0-22.25-9.960937-22.25-22.246094 0-12.289062 9.960938-22.25 22.25-22.25h108.878906c12.289063 0 22.25 9.960938 22.25 22.25 0 12.285157-9.960937 22.246094-22.25 22.246094zm0 0" fill="#eab9a4"/><path d="m127.941406 409.445312c0-12.289062 9.960938-22.25 22.246094-22.25h-37.53125c-12.289062 0-22.25 9.960938-22.25 22.25 0 12.285157 9.960938 22.246094 22.25 22.246094h37.53125c-12.285156 0-22.246094-9.960937-22.246094-22.246094zm0 0" fill="#dd9f80"/><path d="m187.125 450.011719c0 11.0625-8.96875 20.027343-20.027344 20.027343-11.0625 0-20.027344-8.964843-20.027344-20.027343 0-11.058594 8.964844-27.5 20.027344-27.5 11.058594 0 20.027344 16.441406 20.027344 27.5zm0 0" fill="#ffeb99"/><path d="m196.496094 10.015625c-9.527344-1.652344-19.359375-2.515625-29.398438-2.515625-88.144531 0-159.597656 66.488281-159.597656 148.507812 0 22.863282 5.554688 47.863282 15.476562 72.019532 35.207032-141.378906 147.804688-205.105469 173.519532-218.011719zm0 0" fill="#ff929f"/><path d="m196.496094 10.015625c-9.527344-1.652344-19.359375-2.515625-29.398438-2.515625-20.601562 0-40.289062 3.632812-58.363281 10.246094-3.574219 13.597656-9.8125 39.882812-14.550781 73.46875 41.867187-48.351563 87.167968-73.597656 102.3125-81.199219zm0 0" fill="#ffc477"/><path d="m255.253906 179.757812v-12.449218c0-4.144532-3.355468-7.5-7.5-7.5-4.144531 0-7.5 3.355468-7.5 7.5v12.449218c0 4.144532 3.355469 7.5 7.5 7.5 4.140625 0 7.5-3.355468 7.5-7.5zm0 0"/><path d="m93.941406 179.757812v-12.449218c0-4.144532-3.359375-7.5-7.5-7.5-4.144531 0-7.5 3.355468-7.5 7.5v12.449218c0 4.144532 3.355469 7.5 7.5 7.5 4.140625 0 7.5-3.355468 7.5-7.5zm0 0"/><path d="m167.097656 195.113281c9.707032 0 19.414063-3.140625 27.511719-9.425781 3.273437-2.539062 3.867187-7.25 1.332031-10.523438-2.539062-3.273437-7.253906-3.867187-10.523437-1.328124-10.789063 8.367187-25.851563 8.367187-36.640625 0-3.273438-2.539063-7.984375-1.945313-10.523438 1.328124-2.539062 3.273438-1.945312 7.984376 1.328125 10.523438 8.101563 6.28125 17.808594 9.425781 27.515625 9.425781zm0 0"/><path d="m167.097656 0c-44.3125 0-86.058594 16.023438-117.546875 45.121094-3.039062 2.808594-3.226562 7.554687-.417969 10.597656 2.8125 3.042969 7.554688 3.230469 10.601563.417969 11.378906-10.515625 24.242187-19.152344 38.144531-25.753907-4.488281 19.207032-10.21875 47.949219-13.898437 82.105469-.441407 4.121094 1.777343 7.894531 7.464843 8.304688 3.773438.273437 7.035157-2.851563 7.449219-6.695313 4.34375-40.3125 11.59375-72.867187 16.109375-90.636718 16.476563-5.554688 34.042969-8.460938 52.09375-8.460938 18.296875 0 35.847656 3.011719 52.109375 8.527344 4.710938 18.539062 12.246094 52.574218 16.511719 94.59375.394531 3.863281 3.667969 7.09375 7.453125 6.742187 5.605469-.523437 7.890625-4.136719 7.472656-8.257812-3.644531-35.867188-9.621093-66.074219-14.304687-86.128907 49.148437 23.398438 82.855468 70.882813 82.855468 125.53125 0 38.894532-17.316406 85.601563-45.195312 121.894532-12.59375 16.398437-26.410156 29.769531-40.957031 39.84375 9.214843-27.164063 15.445312-57.023438 18.535156-89.074219.394531-4.125-2.625-7.789063-6.746094-8.1875-4.121093-.394531-7.789062 2.621094-8.1875 6.746094-3.621093 37.589843-11.6875 71.960937-23.957031 102.234375-14.851562 6.878906-30.199219 10.457031-45.589844 10.457031s-30.742187-3.578125-45.59375-10.457031c-12.460937-30.761719-20.585937-65.734375-24.125-104.035156-.382812-4.121094-4.046875-7.15625-8.160156-6.777344-4.125.382812-7.160156 4.035156-6.777344 8.160156 3.027344 32.757812 9.3125 63.246094 18.710938 90.933594-14.550782-10.078125-28.363282-23.445313-40.957032-39.84375-27.878906-36.292969-45.195312-83-45.195312-121.894532 0-28.101562 8.894531-55.238281 25.71875-78.476562 2.429688-3.351562 1.679688-8.042969-1.675781-10.472656-3.355469-2.425782-8.046875-1.675782-10.472657 1.675781-18.691406 25.816406-28.570312 55.992187-28.570312 87.273437 0 42.675782 18.054688 91.660157 48.296875 131.03125 17.871094 23.265626 38.160156 40.972657 59.703125 52.460938 2.5 11.410156 6.132812 25.777344 11.074219 40.195312h-6.414063c-16.40625 0-29.75 13.347657-29.75 29.75 0 4.246094.898438 8.28125 2.507813 11.9375-7.796875 7.214844-12.671875 19.234376-12.671875 28.632813 0 13.917969 10.382812 25.445313 23.808594 27.269531.574218 19.238282 16.394531 34.71875 35.769531 34.71875h69.550781c19.738281 0 35.796875-16.058594 35.796875-35.800781v-41.78125c.597656-.386719 1.183594-.789063 1.75-1.21875 8.921875 6.738281 6.945313 18.519531 6.777344 19.339844-.832031 4.058593 1.324219 8.4375 7.351562 9.007812 3.472657.332031 6.613281-2.445312 7.339844-5.992187.371094-1.8125 3.726563-22.683594-12.113281-34.167969 1.609375-3.65625 2.511718-7.699219 2.511718-11.945313 0-16.40625-13.347656-29.75-29.75-29.75h-6.417968c4.941406-14.417968 8.578125-28.785156 11.078125-40.195312 21.542969-11.488281 41.832031-29.195312 59.699219-52.460938 30.242187-39.375 48.296874-88.355468 48.296874-131.03125 0-86.023437-74.960937-156.007812-167.097656-156.007812zm-41.84375 347.25c11.253906 4.15625 22.753906 6.660156 34.34375 7.417969v25.027343h-24.59375c-4.015625-11.027343-7.246094-22.363281-9.75-32.445312zm-37.511718 102.761719c0-5.550781 3.207031-12.722657 7.035156-16.808594.566406.429687 1.148437.828125 1.746094 1.214844v27.550781c-5.082032-1.597656-8.78125-6.355469-8.78125-11.957031zm134.925781 26.191406c0 11.46875-9.328125 20.796875-20.796875 20.796875h-69.550782c-11.46875 0-20.796874-9.328125-20.796874-20.796875v-37.039063c.375.015626 29.835937.027344 29.835937.027344-1.15625 3.683594-1.789063 7.394532-1.789063 10.820313 0 15.179687 12.347657 27.527343 27.523438 27.527343 15.179688 0 27.527344-12.347656 27.527344-27.527343 0-3.425781-.632813-7.136719-1.789063-10.820313 0 0 29.460938-.011718 29.835938-.027344zm-68.097657-26.191406c0-8.597657 7.140626-20 12.527344-20 5.386719 0 12.527344 11.402343 12.527344 20 0 6.910156-5.621094 12.527343-12.527344 12.527343s-12.527344-5.617187-12.527344-12.527343zm81.714844-40.566407c0 8.132813-6.617187 14.746094-14.75 14.746094h-36.867187c-5.058594-5.945312-11.175781-9.179687-17.570313-9.179687-6.398437 0-12.511718 3.234375-17.574218 9.179687h-36.867188c-8.132812 0-14.75-6.613281-14.75-14.746094 0-8.132812 6.617188-14.75 14.75-14.75h108.878906c8.132813 0 14.75 6.617188 14.75 14.75zm-37.09375-29.75h-24.59375v-25.027343c11.589844-.757813 23.085938-3.261719 34.339844-7.417969-2.503906 10.082031-5.734375 21.417969-9.746094 32.445312zm0 0"/></svg>