<svg height="50px" viewBox="0 0 512 512.00106" width="50px" xmlns="http://www.w3.org/2000/svg"><path d="m116.667969 263.789062c-13.183594 21.894532-81.039063 94.417969-102.9375 81.234376-21.894531-13.1875 10.457031-107.085938 23.640625-128.980469 13.1875-21.898438 41.625-28.960938 63.523437-15.777344 21.898438 13.1875 28.960938 41.625 15.773438 63.523437zm0 0" fill="#ff737d"/><path d="m247.792969 394.914062c-21.898438 13.183594-94.417969 81.039063-81.234375 102.933594 13.1875 21.898438 107.085937-10.453125 128.980468-23.636718 21.898438-13.1875 28.960938-41.625 15.777344-63.523438s-41.625-28.960938-63.523437-15.773438zm0 0" fill="#ff737d"/><path d="m502.203125 87.609375c-4.527344-41.203125-37.027344-73.703125-78.230469-78.230469-58.40625-6.417968-144.820312.421875-207.695312 76.300782-59.730469 72.09375-113.117188 139.472656-147.695313 183.714843-23.4375 29.980469-20.816406 72.726563 6.09375 99.636719l67.875 67.875c26.910157 26.90625 69.652344 29.527344 99.636719 6.09375 44.238281-34.578125 111.621094-87.964844 183.710938-147.699219 75.882812-62.871093 82.722656-149.285156 76.304687-207.691406zm0 0" fill="#eaeaea"/><path d="m503.980469 114.417969c-.207031-9.410157-.855469-18.402344-1.777344-26.808594-4.527344-41.203125-37.027344-73.703125-78.230469-78.230469-58.40625-6.417968-144.820312.421875-207.695312 76.300782-59.730469 72.09375-113.117188 139.476562-147.695313 183.714843-23.433593 29.980469-20.816406 72.726563 6.09375 99.636719l37.390625 37.390625c51.929688-64.601563 120.898438-150.367187 169.402344-210.554687 31.921875-39.605469 80.144531-62.46875 131.011719-62.246094 40.199219.175781 71.171875-9.757813 91.5-19.203125zm0 0" fill="#d8d7da"/><path d="m502.203125 87.609375c-4.527344-41.203125-37.027344-73.703125-78.230469-78.230469-38.5-4.230468-89.171875-2.695312-137.246094 20.574219l194.902344 194.902344c23.269532-48.078125 24.804688-98.746094 20.574219-137.246094zm0 0" fill="#ff929f"/><path d="m360.007812 230.382812c0 43.527344-35.285156 78.8125-78.8125 78.8125-43.523437 0-78.808593-35.285156-78.808593-78.8125 0-43.523437 35.285156-78.808593 78.808593-78.808593 43.527344 0 78.8125 35.285156 78.8125 78.808593zm0 0" fill="#c6c5ca"/><path d="m253.796875 257.785156c-15.109375-15.109375-15.109375-39.691406 0-54.800781 15.105469-15.109375 39.691406-15.109375 54.800781 0s15.109375 39.691406 0 54.800781-39.695312 15.109375-54.800781 0zm0 0" fill="#ccf8ff"/><path d="m191.132812 385.902344c-18.074218 18.074218-101.410156 72.105468-119.484374 54.03125-18.070313-18.074219 35.957031-101.410156 54.03125-119.480469 18.074218-18.074219 47.378906-18.074219 65.453124 0 18.070313 18.070313 18.070313 47.375 0 65.449219zm0 0" fill="#ff929f"/><path d="m155.398438 350.171875c12.722656-12.722656 31.019531-16.472656 47.039062-11.285156-2.183594-6.738281-5.953125-13.082031-11.304688-18.4375-18.074218-18.070313-47.378906-18.070313-65.453124 0-18.074219 18.074219-72.105469 101.410156-54.03125 119.480469 5.351562 5.351562 16.421874 4.382812 29.824218-.101563 10.664063-31.871094 41.203125-76.933594 53.925782-89.65625zm0 0" fill="#ff737d"/><path d="m503.984375 114.417969c-.210937-9.414063-.859375-18.402344-1.78125-26.808594-4.527344-41.203125-37.023437-73.703125-78.230469-78.230469-38.5-4.230468-89.171875-2.695312-137.246094 20.574219l104.878907 104.878906c6.878906-.832031 13.859375-1.242187 20.875-1.210937 40.199219.175781 71.175781-9.757813 91.503906-19.203125zm0 0" fill="#ff737d"/><path d="m342.234375 169.347656c-33.65625-33.65625-88.417969-33.65625-122.074219 0s-33.65625 88.417969 0 122.074219c33.65625 33.660156 88.417969 33.660156 122.074219 0 33.65625-33.65625 33.65625-88.417969 0-122.074219zm-111.453125 111.453125c-27.800781-27.800781-27.800781-73.035156 0-100.832031 27.796875-27.800781 73.03125-27.800781 100.832031 0 27.800781 27.796875 27.800781 73.03125 0 100.832031s-73.035156 27.800781-100.832031 0zm0 0"/><path d="m313.910156 197.671875c-18.039062-18.039063-47.386718-18.039063-65.425781 0s-18.039063 47.386719 0 65.425781c18.039063 18.039063 47.386719 18.039063 65.425781 0 18.039063-18.039062 18.039063-47.386718 0-65.425781zm-54.804687 54.804687c-12.179688-12.183593-12.179688-32 0-44.183593 12.183593-12.179688 32-12.179688 44.183593 0 12.179688 12.179687 12.179688 32 0 44.179687-12.183593 12.183594-32.003906 12.183594-44.183593.003906zm0 0"/><path d="m324.214844 422.988281c-.894532-4.046875-4.902344-6.609375-8.953125-5.71875s-6.613281 4.902344-5.71875 8.949219c3.582031 16.261719-3.601563 32.960938-17.875 41.554688-10.441407 6.285156-38.53125 17.296874-65.714844 24.128906-37.246094 9.355468-50.929687 5.441406-52.957031 2.074218-1.484375-2.464843-.402344-11.097656 12.144531-28.234374 21.335937 2.761718 43.632813-2.726563 61.671875-16.824219 43.976562-34.371094 111.570312-87.917969 183.878906-147.832031 35.148438-29.121094 59.1875-65.882813 71.449219-109.261719 9.113281-32.230469 11.644531-67.570313 7.527344-105.035157-2.375-21.621093-12.148438-41.992187-27.515625-57.359374-15.367188-15.367188-35.738282-25.140626-57.359375-27.515626-37.464844-4.117187-72.804688-1.585937-105.035157 7.527344-43.378906 12.261719-80.140624 36.300782-109.261718 71.449219-35.445313 42.773437-68.664063 83.90625-97.007813 119.480469-2.664062-2.453125-5.570312-4.644532-8.71875-6.539063-25.410156-15.300781-58.53125-7.074219-73.832031 18.335938-6.992188 11.613281-18.5625 40.894531-25.824219 69.800781-8.828125 35.136719-5.5625 62.28125 4.746094 69.488281 8.757813 6.125 22.167969 2.5 39.605469-9.210937 6.109375 19.261718 26.683594 38.878906 26.683594 38.878906-16.851563 32.863281-20.0625 53.863281-9.808594 64.117188 10.25 10.253906 31.253906 7.042968 64.117187-9.808594 0 0 19.296875 21.757812 38.878907 26.683594-11.710938 17.4375-15.046876 30.65625-9.210938 39.609374 7.636719 11.71875 34.351562 13.570313 69.488281 4.746094 28.902344-7.261718 58.1875-18.835937 69.800781-25.828125 19.804688-11.925781 29.769532-35.09375 24.800782-57.65625zm-306.609375-84.398437c-3.371094-2.027344-7.28125-15.71875 2.074219-52.960938 6.832031-27.183594 17.839843-55.273437 24.125-65.714844 11.03125-18.3125 34.902343-24.242187 53.214843-13.214843 2.589844 1.5625 4.957031 3.390625 7.085938 5.46875-15.710938 19.785156-29.695313 37.570312-41.441407 52.597656-14.101562 18.039063-19.585937 40.335937-16.824218 61.671875-17.140625 12.550781-25.777344 13.628906-28.234375 12.152344zm59.355469 96.03125c-2.785157-2.785156-3.28125-17.007813 14.777343-50.898438 13.179688-24.734375 30.636719-49.34375 39.253907-57.960937 15.113281-15.117188 39.710937-15.117188 54.828124 0 15.117188 15.117187 15.117188 39.714843 0 54.828125-8.617187 8.617187-33.226562 26.074218-57.960937 39.253906-33.890625 18.058594-48.113281 17.5625-50.898437 14.777344zm67.261718-6.664063c22.855469-13.085937 43.769532-28.296875 52.21875-36.742187 20.972656-20.976563 20.972656-55.101563 0-76.078125-20.972656-20.972657-55.097656-20.972657-76.074218 0-8.445313 8.449219-23.65625 29.367187-36.742188 52.21875 0 0-46.441406-44.726563-9.125-93.335938 33.933594-44.207031 87.78125-111.394531 147.5625-183.546875 19.265625-23.253906 40.832031-39.816406 63.171875-51.390625l15.875 15.875c2.933594 2.933594 7.6875 2.933594 10.621094 0 2.933593-2.933593 2.933593-7.691406 0-10.625l-12.03125-12.03125c43.035156-18.097656 87.691406-19.386719 123.453125-15.457031 18.238281 2.003906 35.417968 10.246094 48.378906 23.207031 12.960938 12.960938 21.203125 30.140625 23.207031 48.378907 3.929688 35.761718 2.640625 80.417968-15.457031 123.453124l-146.015625-146.015624c-2.933594-2.933594-7.6875-2.933594-10.621094 0-2.933593 2.933593-2.933593 7.691406 0 10.621093l149.855469 149.859375c-11.574219 22.335938-28.140625 43.902344-51.390625 63.171875-72.175781 59.800781-139.242187 113.777344-183.546875 147.5625-50.804688 38.738281-93.339844-9.125-93.339844-9.125zm0 0"/></svg>