<svg height="50px" viewBox="0 -33 512 511" width="50px" xmlns="http://www.w3.org/2000/svg"><path d="m168.070312 340.769531 21.675782 66.601563c5.949218 18.273437 22.980468 30.644531 42.195312 30.644531h81.847656c19.21875 0 36.25-12.371094 42.195313-30.644531l21.675781-66.601563zm0 0" fill="#d8d7da"/><path d="m359.597656 340.769531h-191.527344l21.675782 66.601563c.832031 2.558594 1.882812 5 3.121094 7.308594 140.0625 2.777343 166.730468-73.910157 166.730468-73.910157zm0 0" fill="#c6c5ca"/><path d="m272.867188 340.769531v37.824219c0 16.515625 13.390624 29.90625 29.902343 29.90625l52.84375-.035156c.128907-.363282 22.046875-67.695313 22.046875-67.695313zm0 0" fill="#acabb1"/><path d="m359.597656 340.769531h-86.730468v37.824219c0 9.605469 4.519531 18.148438 11.558593 23.617188 61.136719-21.101563 75.171875-61.441407 75.171875-61.441407zm0 0" fill="#898890"/><path d="m74.46875 135.636719 13.421875-95.714844c2.566406-18.304687 18.226563-31.921875 36.707031-31.921875h39.304688c18.769531 0 36.285156 9.425781 46.625 25.089844l67.695312 102.546875zm0 0" fill="#7ac1dd"/><path d="m210.527344 33.089844c-1.816406-2.75-3.84375-5.300782-6.066406-7.644532-29.929688 4.542969-71.394532 15.59375-120.328126 41.269532l-9.664062 68.921875h203.753906zm0 0" fill="#61a5ce"/><path d="m282.847656 368.726562c-123.90625 0-275.347656-67.1875-275.347656-150.066406 0-82.875 144.902344-150.0625 275.347656-150.0625 130.441406 0 221.652344 67.1875 221.652344 150.0625 0 82.878906-97.746094 150.066406-221.652344 150.066406zm0 0" fill="#ccf8ff"/><path d="m492.410156 167.980469c-60.441406-13.027344-144.050781-21.09375-236.410156-21.09375-88.578125 0-169.105469 7.421875-228.867188 19.523437-12.511718 16.273438-19.632812 33.875-19.632812 52.25 0 18.445313 7.492188 36.105469 20.523438 52.429688 59.671874 11.996094 139.839843 19.34375 227.976562 19.34375 91.953125 0 175.234375-7.996094 235.613281-20.925782 8.355469-15.878906 12.886719-32.996093 12.886719-50.847656 0-17.785156-4.199219-34.847656-12.089844-50.679687zm0 0" fill="#abebf4"/><path d="m157.472656 244.574219h-51.105468c-14.253907 0-25.914063-11.660157-25.914063-25.914063s11.660156-25.914062 25.914063-25.914062h51.105468c14.253906 0 25.914063 11.660156 25.914063 25.914062s-11.660157 25.914063-25.914063 25.914063zm0 0" fill="#7ac1dd"/><path d="m446.867188 106.390625c-42.0625-29.207031-100.3125-45.292969-164.019532-45.292969-124.894531 0-194.832031 47.320313-197.167968 48.605469l9.636718-68.742187c2.035156-14.515626 14.625-25.460938 29.28125-25.460938h39.304688c28.148437 0 46.574218 31.121094 46.574218 31.121094 2.28125 3.457031 6.933594 4.410156 10.390626 2.128906 3.457031-2.28125 4.410156-6.933594 2.125-10.390625 0 0-20.132813-37.859375-59.089844-37.859375h-39.304688c-22.09375 0-41.066406 16.5-44.132812 38.378906l-11.304688 80.609375c-44.808594 28.664063-69.160156 63.277344-69.160156 99.171875 0 41.453125 33.847656 81.511719 95.304688 112.796875 21.730468 11.058594 45.804687 20.351563 70.820312 27.5625l16.488281 50.675781c6.976563 21.425782 26.796875 35.820313 49.328125 35.820313h81.847656c22.53125 0 42.359376-14.398437 49.328126-35.820313l15.480468-47.566406c24.203125-7.554687 46.449219-18.023437 65.757813-31.15625 43.621093-29.667968 67.644531-69.554687 67.644531-112.3125 0-43.234375-23.132812-83.105468-65.132812-112.269531zm-347.167969 12.824219c52.226562-27 120.691406-43.117188 183.148437-43.117188 60.679688 0 115.890625 15.132813 155.464844 42.613282 16.316406 11.328124 29.464844 24.378906 39.152344 38.609374-61.371094-11.597656-139.171875-17.933593-221.464844-17.933593-76.152344 0-149.078125 5.496093-208.300781 15.582031 13.667969-12.886719 31.375-25.09375 52-35.753906zm214.089843 311.300781h-81.847656c-16.015625 0-30.105468-10.234375-35.0625-25.464844l-13.480468-41.421875c27.183593 6.679688 55.078124 10.878906 81.96875 12.167969 0 0-1.53125 40.203125 37.410156 40.203125l40.367187-.027344c-6.828125 8.996094-17.566406 14.542969-29.355469 14.542969zm36.394532-29.546875-47.410156.03125c-23.246094 0-22.40625-24.796875-22.40625-24.796875 35.867187-.28125 56.132812-3.15625 80.882812-9.242187zm85.738281-82.398438c-40.441406 27.507813-94.804687 42.65625-153.074219 42.65625-60.109375 0-127.671875-16.128906-180.738281-43.136718-20.902344-10.640625-38.898437-22.746094-52.882813-35.480469 58.957032 9.921875 131.324219 15.324219 206.773438 15.324219 38.671875 0 76.589844-1.402344 112.695312-4.167969 4.128907-.320313 7.222657-3.921875 6.90625-8.054687-.320312-4.128907-3.917968-7.222657-8.054687-6.902344-35.726563 2.738281-73.257813 4.125-111.546875 4.125-83.230469 0-162.535156-6.621094-223.761719-18.660156-11.433593-15.011719-17.238281-30.316407-17.238281-45.613282 0-15.3125 5.535156-30.5625 16.429688-45.453125 61.332031-12.140625 140.917968-18.820312 224.570312-18.820312 87.152344 0 169.054688 7.160156 231.230469 20.171875 6.425781 13.992187 9.769531 28.832031 9.769531 44.101562 0 15.246094-3.5625 30.136719-10.414062 44.242188-25.6875 5.34375-55.007813 9.738281-87.242188 13.058594-4.121094.425781-7.117188 4.109374-6.691406 8.230468.398437 3.859375 4.128906 6.976563 8.226562 6.691406 27.347656-1.898437 52.515625-6.382812 75.324219-10.644531-10.039063 14.007813-23.558594 26.957031-40.28125 38.332031zm0 0"/><path d="m157.472656 185.246094h-51.105468c-18.425782 0-33.414063 14.992187-33.414063 33.414062 0 18.425782 14.988281 33.414063 33.414063 33.414063h51.105468c18.425782 0 33.414063-14.988281 33.414063-33.414063 0-18.421875-14.988281-33.414062-33.414063-33.414062zm0 51.828125h-51.105468c-10.152344 0-18.414063-8.261719-18.414063-18.414063s8.257813-18.414062 18.414063-18.414062h51.105468c10.152344 0 18.414063 8.261718 18.414063 18.414062 0 10.15625-8.261719 18.414063-18.414063 18.414063zm0 0"/></svg>